<svg xmlns="http://www.w3.org/2000/svg" xmlns:xlink="http://www.w3.org/1999/xlink" width="500" zoomAndPan="magnify" viewBox="0 0 375 374.999991" height="500" preserveAspectRatio="xMidYMid meet" version="1.0"><defs><clipPath id="id1"><path d="M 215 53.214844 L 350.226562 53.214844 L 350.226562 321.714844 L 215 321.714844 Z M 215 53.214844 " clip-rule="nonzero"/></clipPath><clipPath id="id2"><path d="M 25 53.214844 L 160 53.214844 L 160 321.714844 L 25 321.714844 Z M 25 53.214844 " clip-rule="nonzero"/></clipPath></defs><g clip-path="url(#id1)"><path fill="#5271ff" d="M 215.761719 53.183594 L 215.761719 108.09375 L 295.105469 187.425781 L 215.761719 266.757812 L 215.761719 321.667969 L 350.023438 187.425781 Z M 215.761719 53.183594 " fill-opacity="1" fill-rule="nonzero"/></g><g clip-path="url(#id2)"><path fill="#5271ff" d="M 159.265625 108.09375 L 159.265625 53.183594 L 25.003906 187.425781 L 159.265625 321.667969 L 159.265625 266.757812 L 79.921875 187.425781 Z M 159.265625 108.09375 " fill-opacity="1" fill-rule="nonzero"/></g><path fill="#5271ff" d="M 121.941406 187.425781 L 187.511719 121.867188 L 253.082031 187.425781 L 187.511719 252.988281 Z M 121.941406 187.425781 " fill-opacity="1" fill-rule="nonzero"/></svg>
